<?xml version="1.0" encoding="UTF-8"?>
<svg xmlns="http://www.w3.org/2000/svg" xmlns:xlink="http://www.w3.org/1999/xlink" width="12pt" height="12pt" viewBox="0 0 12 12" version="1.1">
<g id="surface1">
<path style=" stroke:none;fill-rule:nonzero;fill:#ffffff;fill-opacity:1;" d="M 12.835938 1.757812 C 12.171875 1.078125 11.09375 1.078125 10.425781 1.757812 L 4.410156 7.894531 L 2.90625 6.359375 C 2.238281 5.679688 1.160156 5.679688 0.496094 6.359375 C -0.167969 7.039062 -0.167969 8.136719 0.496094 8.816406 L 3.207031 11.574219 C 3.871094 12.253906 4.949219 12.253906 5.613281 11.574219 L 12.835938 4.210938 C 13.5 3.535156 13.5 2.433594 12.835938 1.757812 Z M 12.234375 3.597656 C 12.234375 3.597656 5.125 10.847656 5.011719 10.964844 C 4.679688 11.300781 4.140625 11.300781 3.808594 10.964844 C 3.808594 10.964844 1.082031 8.183594 1.074219 8.175781 C 0.769531 7.835938 0.777344 7.304688 1.101562 6.972656 C 1.433594 6.632812 1.972656 6.632812 2.304688 6.972656 L 4.410156 9.121094 L 11.027344 2.371094 C 11.359375 2.03125 11.902344 2.03125 12.234375 2.371094 C 12.566406 2.707031 12.566406 3.257812 12.234375 3.597656 Z M 12.234375 3.597656 "/>
</g>
</svg>
