<?xml version="1.0" encoding="UTF-8"?>
<svg xmlns="http://www.w3.org/2000/svg" xmlns:xlink="http://www.w3.org/1999/xlink" width="16pt" height="16pt" viewBox="0 0 16 16" version="1.1">
<g id="surface1">
<path style=" stroke:none;fill-rule:nonzero;fill:rgb(0%,0%,0%);fill-opacity:1;" d="M 15.652344 8.003906 C 15.652344 12.332031 12.542969 15.40625 7.957031 15.40625 C 3.554688 15.40625 0 12.019531 0 7.824219 C 0 3.632812 3.554688 0.246094 7.957031 0.246094 C 10.097656 0.246094 11.898438 0.992188 13.289062 2.226562 L 11.125 4.210938 C 8.292969 1.605469 3.023438 3.5625 3.023438 7.824219 C 3.023438 10.46875 5.242188 12.613281 7.957031 12.613281 C 11.105469 12.613281 12.285156 10.460938 12.46875 9.34375 L 7.957031 9.34375 L 7.957031 6.738281 L 15.527344 6.738281 C 15.601562 7.125 15.652344 7.5 15.652344 8.003906 Z M 15.652344 8.003906 "/>
</g>
</svg>
